<?xml version="1.0" encoding="UTF-8"?>
<svg id="bases" xmlns="http://www.w3.org/2000/svg" viewBox="0 0 92 172">
  <defs>
    <style>
      .cls-1 {
        stroke: #231f20;
        stroke-miterlimit: 10;
        stroke-width: 1.25px;
      }

      .cls-1, .cls-2 {
        fill: #e6e7e8;
      }

      .cls-3 {
        fill: #231f20;
      }

      .cls-4 {
        fill: #fff;
      }
    </style>
  </defs>
  <g>
    <path class="cls-2" d="M11.82,1.51h68.35c5.69,0,10.31,4.62,10.31,10.31v148.35c0,5.69-4.62,10.31-10.31,10.31H11.82c-5.69,0-10.31-4.62-10.31-10.31V11.82C1.51,6.13,6.13,1.51,11.82,1.51Z"/>
    <path class="cls-3" d="M80.18,3.02c4.86,0,8.81,3.95,8.81,8.81v148.35c0,4.86-3.95,8.81-8.81,8.81H11.82c-4.86,0-8.81-3.95-8.81-8.81V11.82C3.02,6.97,6.97,3.02,11.82,3.02h68.35M80.18,0H11.82C5.29,0,0,5.29,0,11.82v148.35c0,6.53,5.29,11.82,11.82,11.82h68.35c6.53,0,11.82-5.29,11.82-11.82V11.82c0-6.53-5.29-11.82-11.82-11.82h0Z"/>
  </g>
  <g>
    <g>
      <path class="cls-4" d="M46,109.75c-13.1,0-23.75-10.65-23.75-23.75s10.65-23.75,23.75-23.75,23.75,10.65,23.75,23.75-10.65,23.75-23.75,23.75Z"/>
      <path class="cls-3" d="M46,63.5c12.41,0,22.5,10.09,22.5,22.5,0,6.01-2.34,11.66-6.59,15.91-4.25,4.25-9.9,6.59-15.91,6.59-12.41,0-22.5-10.09-22.5-22.5s10.09-22.5,22.5-22.5M46,61c-13.81,0-25,11.19-25,25s11.19,25,25,25,25-11.19,25-25c0-13.81-11.19-25-25-25h0Z"/>
    </g>
    <path class="cls-1" d="M55.94,89.51c1.5,0,1.87.08,2.6.41.89.49,1.54,1.58,1.54,2.68s-.65,2.23-1.54,2.72c-.73.36-1.06.41-2.6.41h-18.83c-1.91,0-2.4-.12-3.13-.65-.97-.73-1.38-1.66-1.38-3.08v-.77s0-5.52,0-5.52c0-5.72,3.29-9.46,8.4-9.46,2.19,0,4.18.73,5.48,2.11,1.01,1.06,1.46,2.03,1.95,4.22l5.84-5.28c1.3-1.18,1.91-1.5,2.8-1.5,1.66,0,3.04,1.42,3.04,3.13,0,1.1-.45,1.79-1.95,2.96l-9.5,7.63h7.27ZM44.33,85.66c0-1.95-1.26-3.33-3.04-3.33s-3.29,1.5-3.29,3.45v3.73h6.33v-3.86Z"/>
  </g>
</svg>