<?xml version="1.0" encoding="UTF-8"?>
<svg id="Layer_1" xmlns="http://www.w3.org/2000/svg" viewBox="0 0 124 124">
  <defs>
    <style>
      .cls-1 {
        fill: #231f20;
      }

      .cls-2 {
        stroke: #6d6e71;
      }

      .cls-2, .cls-3 {
        fill: none;
      }

      .cls-2, .cls-3, .cls-4, .cls-5 {
        stroke-miterlimit: 10;
      }

      .cls-2, .cls-4 {
        stroke-width: 1.8px;
      }

      .cls-3, .cls-4, .cls-5 {
        stroke: #231f20;
      }

      .cls-3, .cls-5 {
        stroke-width: .9px;
      }

      .cls-4 {
        fill: #fff;
      }

      .cls-5, .cls-6 {
        fill: #414042;
      }

      .cls-7 {
        fill: #bcbec0;
      }
    </style>
  </defs>
  <g>
    <path class="cls-6" d="M62,123.1C28.31,123.1.9,95.69.9,62S28.31.9,62,.9s61.1,27.41,61.1,61.1-27.41,61.1-61.1,61.1Z"/>
    <path class="cls-1" d="M62,1.8c33.2,0,60.2,27.01,60.2,60.2s-27.01,60.2-60.2,60.2S1.8,95.2,1.8,62,28.8,1.8,62,1.8M62,0C27.76,0,0,27.76,0,62s27.76,62,62,62,62-27.76,62-62S96.24,0,62,0h0Z"/>
  </g>
  <line class="cls-3" x1="79.07" y1="3.5" x2="79.07" y2="44.03"/>
  <line class="cls-3" x1="79.07" y1="79.97" x2="79.07" y2="120.5"/>
  <circle class="cls-2" cx="79.07" cy="62" r="19.04"/>
  <circle class="cls-4" cx="79.07" cy="62" r="17.97"/>
  <path class="cls-5" d="M71.93,59.47c-1.08,0-1.34-.06-1.87-.29-.64-.35-1.11-1.14-1.11-1.93s.47-1.6,1.11-1.96c.53-.26.76-.29,1.87-.29h13.54c1.37,0,1.72.09,2.25.47.7.52.99,1.2.99,2.22v4.52c0,4.11-2.36,6.8-6.04,6.8-1.58,0-3.01-.53-3.94-1.52-.73-.76-1.05-1.46-1.4-3.03l-4.2,3.79c-.93.85-1.37,1.08-2.01,1.08-1.2,0-2.19-1.02-2.19-2.25,0-.79.32-1.28,1.4-2.13l6.83-5.49h-5.22ZM80.27,62.25c0,1.4.9,2.39,2.19,2.39s2.36-1.08,2.36-2.48v-2.68h-4.55v2.77Z"/>
  <rect class="cls-7" x="24" y="55" width="25" height="14"/>
  <rect class="cls-7" x="24" y="69" width="25" height="14"/>
  <rect class="cls-7" x="24" y="41" width="25" height="14"/>
</svg>