<?xml version="1.0" encoding="UTF-8"?>
<svg id="Layer_1" xmlns="http://www.w3.org/2000/svg" viewBox="0 0 34 34">
  <defs>
    <style>
      .cls-1 {
        stroke-width: .66px;
      }

      .cls-1, .cls-2 {
        fill: #fed700;
        stroke: #231f20;
        stroke-miterlimit: 10;
      }

      .cls-2 {
        stroke-width: .73px;
      }
    </style>
  </defs>
  <polygon class="cls-2" points="0 10.51 11.05 3.8 20.68 5.73 26.79 0 34 16.05 29.75 25.17 31.17 29.15 20.97 34 10.48 29.15 2.55 27.25 3.83 17 0 10.51"/>
  <polyline class="cls-1" points="3.83 17 11.81 23.3 20.17 19.48 25.69 22.29 29.75 25.17"/>
  <polyline class="cls-1" points="34 16.05 25.69 12.46 20.17 11.84 20.68 5.73"/>
  <polyline class="cls-1" points="11.05 3.8 8.97 10.89 11.62 14.93"/>
  <polyline class="cls-1" points="32.03 20.27 22.29 16.05 16.69 11.84"/>
  <line class="cls-1" x1="20.17" y1="19.48" x2="24.36" y2="26.31"/>
  <polyline class="cls-1" points="14.24 30.89 18.51 25.17 20.68 28.03"/>
  <polyline class="cls-1" points="8.42 20.63 6.14 25.17 13.41 27.12"/>
  <line class="cls-1" x1="26.79" x2="25.74" y2="8.02"/>
</svg>