<?xml version="1.0" encoding="UTF-8"?>
<svg id="Layer_1" xmlns="http://www.w3.org/2000/svg" viewBox="0 0 80 80">
  <defs>
    <style>
      .cls-1 {
        fill: #df6fab;
      }
    </style>
  </defs>
  <path class="cls-1" d="M30,53.74l2.45-12.2-.95-.7c-1.9-1.57-3.03-3.38-3.4-5.45l-.1-1.5v-.24c.17-4.77,1.33-8.88,3.5-12.35,1.1-1.67,2.3-2.93,3.6-3.8-.73-1-1.1-2.17-1.1-3.5,0-1.67.58-3.1,1.75-4.3,1.17-1.13,2.58-1.7,4.25-1.7s3.08.57,4.25,1.7c1.17,1.2,1.75,2.63,1.75,4.3,0,1.33-.37,2.5-1.1,3.5l2,1.8c1.23,1.5,1.15,3-.25,4.5l-4.4,4.45c-.5.47-.75,1.05-.75,1.75s.25,1.3.75,1.8c.47.47,1.05.7,1.75.7s1.3-.23,1.8-.7l2.45-2.45c2.23-2.07,3.47-1.25,3.7,2.45l.05.8v1.55l-.1,1.5c-.37,2.07-1.52,3.88-3.45,5.45l-.9.7,2.45,12.2h3c1.1,0,2.03.38,2.8,1.15.67.67,1.07,1.43,1.2,2.3v3.55H23v-4h.03c.1-.67.47-1.44,1.1-2.11.8-.77,2.85-.89,2.85-.89h3.02M58,72H22c-1.1,0-2.05-.4-2.85-1.2-.77-.77-1.15-1.7-1.15-2.8v-3h.03c.1-.67.47-1.44,1.1-2.11l.2.11h41.3l.15-.11c.67.67,1.22,2.3,1.22,2.3v2.55c0,1.1-.4,2.03-1.2,2.8-.77.8-1.7,1.2-2.8,1.2"/>
</svg>