<?xml version="1.0" encoding="UTF-8"?>
<svg id="Layer_1" xmlns="http://www.w3.org/2000/svg" viewBox="0 0 80 80">
  <defs>
    <style>
      .cls-1 {
        fill: #df6fab;
      }
    </style>
  </defs>
  <path class="cls-1" d="M32.9,24.15c.93-.93,1.97-1.63,3.1-2.1v-2.05h-2c-.57,0-1.03-.18-1.4-.55-.4-.4-.6-.88-.6-1.45v-4c0-.57.2-1.03.6-1.4.37-.4.83-.6,1.4-.6h2v-2c0-.57.2-1.03.6-1.4.37-.4.83-.6,1.4-.6h4c.57,0,1.05.2,1.45.6.37.37.55.83.55,1.4v2h2c.57,0,1.05.2,1.45.6.37.37.55.83.55,1.4v4c0,.57-.18,1.05-.55,1.45-.4.37-.88.55-1.45.55h-2v1.8c1.1.47,2.12,1.17,3.05,2.1.93.93,1.65,1.97,2.15,3.1h-17.93c.47-1.13,1.17-2.17,2.1-3.1M31,54v-4h-1c-1.1,0-2.05-.4-2.85-1.2-.77-.77-1.15-1.7-1.15-2.8v-3h.05l.65-1.64-2.6-8.6.05-1.3c.13-.42.4-.76.8-1.01.37-.26.8-.4,1.3-.43h27.5c.5.03.93.18,1.3.43l.85,1.01c.13.45.13.89,0,1.3l-2.6,8.6c.37.48.6,1.03.7,1.64v3c0,1.1-.4,2.03-1.2,2.8-.77.8-1.7,1.2-2.8,1.2h-1v4h1c1.1,0,2.03.38,2.8,1.15.67.67,1.07,1.43,1.2,2.3v3.55h-28v-4h.52c.1-.16.47-.93,1.1-1.6.8-.77,2.85-1.4,2.85-1.4h.53M55,72h-30c-1.1,0-2.05-.4-2.85-1.2-.77-.77-1.15-1.7-1.15-2.8v-3h.52c.1-.16.47-.93,1.1-1.6l.2-.4h35.3l.15.4c.67.67.73,2.3.73,2.3v2.55c0,1.1-.4,2.03-1.2,2.8-.77.8-1.7,1.2-2.8,1.2"/>
</svg>