<?xml version="1.0" encoding="UTF-8"?>
<svg id="Layer_1" xmlns="http://www.w3.org/2000/svg" viewBox="0 0 80 80">
  <defs>
    <style>
      .cls-1 {
        fill: #df6fab;
      }
    </style>
  </defs>
  <path class="cls-1" d="M23,57h.17c.1-.86.46-1.62,1.09-2.28.76-.73,1.65-1.1,2.67-1.14,1.15-2.6,3.54-5.32,7.17-8.16,2.54-2.04,5.03-5.46,7.47-10.24l.1-1.48-.84.25.1-.15c-4.98,4.29-9.43,6.25-13.35,5.89-2.18-.16-3.63-1.3-4.35-3.41l-.1-.69.2-.64,8.56-14.14-2.23-2.18c-.3-.3-.45-.66-.45-1.09,0-.43.15-.79.45-1.09.3-.3.66-.45,1.09-.45h12.41c8.77.37,13.38,4.95,13.85,13.75v12.5c-.6,5-1.62,8.95-3.05,11.85.7.17,1.32.52,1.85,1.05.67.67,1.07,1.43,1.2,2.3v3.55H23v-4M58,72H22c-1.1,0-2.05-.4-2.85-1.2-.77-.77-1.15-1.7-1.15-2.8v-3h.07c.1-.64.47-1.41,1.1-2.07l.2.07h41.3l.15-.07c.67.67,1.18,2.3,1.18,2.3v2.55c0,1.1-.4,2.03-1.2,2.8-.77.8-1.7,1.2-2.8,1.2"/>
</svg>