<?xml version="1.0" encoding="UTF-8"?>
<svg id="Layer_1" xmlns="http://www.w3.org/2000/svg" viewBox="0 0 80 80">
  <defs>
    <style>
      .cls-1 {
        fill: #df6fab;
      }
    </style>
  </defs>
  <path class="cls-1" d="M50,21.74c0,2.3-.67,4.3-2,6,1.1,0,2.03.38,2.8,1.15.67.67,1.07,1.43,1.2,2.3v2.81c0,1.1-.4,2.03-1.2,2.8l-1.5,1,2.7,16.2h1c1.1,0,2.03.38,2.8,1.15.67.67,1.07,1.43,1.2,2.3v3.55H23v-4h.05c.1-.67.47-1.44,1.1-2.11.8-.77,2.85-.89,2.85-.89h1l2.75-16.52-1.58-1.02c-.78-.78-1.17-1.73-1.17-2.86v-2.6h.05c.1-.87.47-1.63,1.1-2.3.8-.77,1.75-1.15,2.85-1.15-1.33-1.7-2-3.7-2-6,0-2.77.97-5.15,2.9-7.15,1.97-1.9,4.33-2.85,7.1-2.85s5.12.95,7.05,2.85c1.97,2,2.95,4.38,2.95,7.15M58,72H22c-1.1,0-2.05-.4-2.85-1.2-.77-.77-1.15-1.7-1.15-2.8v-3h.05c.1-.67.47-1.44,1.1-2.11l.2.11h41.3l.15-.11c.67.67,1.07,1.43,1.2,2.3v2.55c0,1.1-.4,2.03-1.2,2.8-.77.8-1.7,1.2-2.8,1.2"/>
</svg>