<?xml version="1.0" encoding="UTF-8"?>
<svg id="Layer_1" xmlns="http://www.w3.org/2000/svg" viewBox="0 0 80 80">
  <defs>
    <style>
      .cls-1 {
        fill: #df6fab;
      }
    </style>
  </defs>
  <path class="cls-1" d="M33.34,18c.9-.9,1.9-1.58,3-2.05-.6-.83-.9-1.78-.9-2.85,0-1.37.48-2.55,1.45-3.55.88-.85,1.91-1.33,3.07-1.43,1.73-.15,3.46.64,4.5,2.03.65.86.98,1.85.98,2.95s-.3,2.02-.9,2.85l2.95,2.05c1.37,1.37,2.27,2.93,2.7,4.7l-2.9,1.85-3.9-2.55h.05c-.93-.6-1.93-.9-3-.9s-2.02.3-2.85.9l-4,2.55-2.85-1.85c.4-1.77,1.27-3.33,2.6-4.7M31,54v-10h-1c-1.1,0-2.05-.4-2.85-1.2-.77-.77-1.15-1.7-1.15-2.8v-1.8l1.4-.05-3.3-11.3.05-1.35c.13-.43.4-.78.8-1.05.37-.27.8-.42,1.3-.45.47,0,.9.13,1.3.4l5.6,3.6,5.6-3.6c.37-.27.78-.4,1.25-.4s.9.13,1.3.4l5.55,3.6,5.6-3.6c.4-.27.83-.4,1.3-.4.5.03.93.18,1.3.45l.85,1.05c.13.47.13.92,0,1.35l-3.3,11.3,1.4.05v1.8c0,1.1-.4,2.03-1.2,2.8-.77.8-1.7,1.2-2.8,1.2h-1v10h1c1.1,0,2.03.38,2.8,1.15.67.67,1.07,1.43,1.2,2.3v3.55h-28v-4h.49c.1-.4.47-1.17,1.1-1.84.8-.77,2.85-1.16,2.85-1.16h.56M55,72h-30c-1.1,0-2.05-.4-2.85-1.2-.77-.77-1.15-1.7-1.15-2.8v-3h.49c.1-.4.47-1.17,1.1-1.84l.2-.16h35.3l.15.16c.67.67.76,2.3.76,2.3v2.55c0,1.1-.4,2.03-1.2,2.8-.77.8-1.7,1.2-2.8,1.2"/>
</svg>