<?xml version="1.0" encoding="UTF-8"?>
<svg id="Layer_1" xmlns="http://www.w3.org/2000/svg" viewBox="0 0 80 80">
  <defs>
    <style>
      .cls-1 {
        fill: #df6fab;
      }
    </style>
  </defs>
  <path class="cls-1" d="M23,57h.22s.47-1.18,1.1-1.85c.8-.77,1.75-1.15,2.85-1.15h.83v-20.15l-6.4-6.4c-.38-.38-.6-.91-.6-1.45v-12c0-.57.2-1.03.6-1.4.37-.4.83-.6,1.4-.6h6c.57,0,1.05.2,1.45.6.37.37.55.83.55,1.4v6h4v-6c0-.57.2-1.03.6-1.4.37-.4.83-.6,1.4-.6h6c.57,0,1.05.2,1.45.6.37.37.55.83.55,1.4v6h4v-6c0-.57.2-1.03.6-1.4.37-.4.83-.6,1.4-.6h6c.57,0,1.05.2,1.45.6.37.37.55.83.55,1.4v12c0,.57-.18,1.05-.55,1.45l-6.45,6.45v20.1h1c1.1,0,2.03.38,2.8,1.15.67.67,1.07,1.43,1.2,2.3v3.55H23v-4M58,72H22c-1.1,0-2.05-.4-2.85-1.2-.77-.77-1.15-1.7-1.15-2.8v-3h.22c.1-.42.47-1.18,1.1-1.85l.2-.15h41.3l.15.15c.67.67,1.03,2.3,1.03,2.3v2.55c0,1.1-.4,2.03-1.2,2.8-.77.8-1.7,1.2-2.8,1.2"/>
</svg>